# xmcd CD database file
#
# Track frame offsets:
#	150
#	17520
#	30764
#	48699
#	65860
#	82251
#	97258
#	114425
#	132394
#	145470
#	161603
#	178923
#	195762
#	210184
#	223451
#	237757
#	251740
#	267952
#	279262
#	294215
#
# Disc length: 4231 seconds
#
# Revision: 0
# Processed by: cddbd v1.5.2PL0 Copyright (c) Steve Scherf et al.
# Submitted via: CDex 1.70beta2
#
DISCID=2c108514
DTITLE=ERIC CLAPTON - Tha Lost Polydor Tapes ''Archives Pathfinder'' cd 2
DYEAR=2001
DGENRE=Blues
TTITLE0=Lonesome And A Long Way From Home(Alt. Mix 1.)
TTITLE1=Easy Now
TTITLE2=Bad Boy(Alt. Mix 3.)
TTITLE3=Bad Boy(Alt. Mix 4.)
TTITLE4=Lonesome And A Long Way From Home(Alt. Mix 2.)
TTITLE5=After Midnight(Alt. Mix 2.)
TTITLE6=Lovin' You Lovin' Me(Alt. Mix 2.)
TTITLE7=Don't Know Why
TTITLE8=Bottle Of Red Wine
TTITLE9=Slunky
TTITLE10=Bad Boy
TTITLE11=Lonesome And A Long Way From Home
TTITLE12=After Midnight
TTITLE13=Easy Now
TTITLE14=Blues Pover
TTITLE15=Bottle Of Red Wine
TTITLE16=Lovin' You Lovin' Me
TTITLE17=Told You For The Last Time
TTITLE18=Don't Know Why 
TTITLE19=Let It Rain
EXTD=YEAR: 2001
EXTT0=
EXTT1=
EXTT2=
EXTT3=
EXTT4=
EXTT5=
EXTT6=
EXTT7=
EXTT8=
EXTT9=
EXTT10=
EXTT11=
EXTT12=
EXTT13=
EXTT14=
EXTT15=
EXTT16=
EXTT17=
EXTT18=
EXTT19=
PLAYORDER=
